<svg width="28" height="26" viewBox="0 0 28 26" fill="none" xmlns="http://www.w3.org/2000/svg">
<path d="M11.0003 6.58385e-07C9.332 0.000836764 7.68721 0.368644 6.1981 1.07386C4.70899 1.77908 3.41708 2.80203 2.42622 4.06051C1.43536 5.31899 0.773175 6.77788 0.492897 8.31994C0.212619 9.86199 0.322062 11.4442 0.812429 12.9394C1.3028 14.4346 2.16041 15.801 3.31634 16.929C4.47227 18.0569 5.89428 18.9148 7.46807 19.4337C9.04186 19.9526 10.7235 20.1181 12.3779 19.9169C14.0323 19.7157 15.6133 19.1533 16.9938 18.275L23.5846 24.45C23.7676 24.6342 23.9884 24.782 24.2337 24.8845C24.4789 24.9869 24.7437 25.042 25.0122 25.0465C25.2807 25.0509 25.5474 25.0046 25.7964 24.9103C26.0454 24.816 26.2716 24.6756 26.4614 24.4976C26.6513 24.3195 26.801 24.1075 26.9016 23.874C27.0022 23.6405 27.0515 23.3905 27.0468 23.1387C27.0421 22.8869 26.9833 22.6387 26.874 22.4087C26.7647 22.1787 26.6071 21.9717 26.4107 21.8L19.8253 15.62C20.9148 14.1165 21.5466 12.3629 21.6528 10.5478C21.759 8.7328 21.3355 6.92494 20.428 5.31865C19.5205 3.71237 18.1632 2.36841 16.5021 1.43129C14.841 0.494173 12.9389 -0.000658853 11.0003 6.58385e-07ZM4.33485 10C4.33485 8.3424 5.0371 6.75269 6.28711 5.58058C7.53711 4.40848 9.23249 3.75 11.0003 3.75C12.768 3.75 14.4634 4.40848 15.7134 5.58058C16.9634 6.75269 17.6657 8.3424 17.6657 10C17.6657 11.6576 16.9634 13.2473 15.7134 14.4194C14.4634 15.5915 12.768 16.25 11.0003 16.25C9.23249 16.25 7.53711 15.5915 6.28711 14.4194C5.0371 13.2473 4.33485 11.6576 4.33485 10Z" fill="#DADADA"/>
</svg>
